<?xml version="1.0" encoding="UTF-8"?>
<svg id="Layer_2" data-name="Layer 2" xmlns="http://www.w3.org/2000/svg" viewBox="0 0 171.86 58.06">
  <defs>
    <style>
      .cls-1 {
        fill: #fff;
      }

      .cls-2 {
        fill: #478bf9;
      }
    </style>
  </defs>
  <g id="Layer_1-2" data-name="Layer 1">
    <g>
      <path class="cls-1" d="M166.75,21.26h-.01s-14.19-14.17-14.19-14.17c-6.66-6.66-17.46-6.66-24.12,0l-7.68,7.68-12.06,12.06-4.11,4.11-20.92,20.92c-.36,.36-.36,.94,0,1.3,3.15,3.15,7.28,4.72,11.41,4.72s8.26-1.58,11.41-4.72l28.08-28.08c3.27-3.27,8.58-3.27,11.86,0l4.79,4.79c1.91,1.91,1.91,5.01,0,6.93l-.74,.74c-1.91,1.91-5.01,1.91-6.92,0l-6.21-6.2c-.36-.36-.94-.36-1.3,0l-10.76,10.76c-.36,.36-.36,.94,0,1.3l9.67,9.67c3.33,3.33,7.7,4.99,12.06,4.99s8.73-1.66,12.06-4.99l7.67-7.67c6.66-6.66,6.66-17.46,0-24.12h0Z"/>
      <path class="cls-2" d="M140.61,4.94c3.79,0,7.36,1.48,10.05,4.16l14.19,14.18,.48,.48c5.07,5.57,4.91,14.23-.47,19.61l-7.67,7.67c-2.69,2.68-6.25,4.16-10.05,4.16s-7.36-1.48-10.05-4.16l-8.31-8.31,8.04-8.04,4.84,4.84c1.46,1.46,3.41,2.27,5.48,2.27s4.01-.81,5.47-2.27l.74-.74c3.02-3.02,3.02-7.93,0-10.95l-4.79-4.79c-2.12-2.12-4.94-3.29-7.94-3.29s-5.82,1.17-7.94,3.29l-28.08,28.08c-2.51,2.51-5.85,3.89-9.4,3.89-2.9,0-5.66-.92-7.94-2.63l19.46-19.46,4.11-4.11,12.06-12.06,7.68-7.68c2.69-2.69,6.25-4.16,10.05-4.16m0-2.84c-4.37,0-8.73,1.66-12.06,4.99l-7.68,7.68-12.06,12.06-4.11,4.11-20.92,20.92c-.36,.36-.36,.94,0,1.3,3.15,3.15,7.28,4.72,11.41,4.72s8.26-1.58,11.41-4.72l28.08-28.08c1.64-1.64,3.78-2.45,5.93-2.45s4.29,.82,5.93,2.45l4.79,4.79c1.91,1.91,1.91,5.01,0,6.93l-.74,.74c-.96,.96-2.21,1.43-3.46,1.43s-2.51-.48-3.46-1.44l-6.21-6.2c-.18-.18-.42-.27-.65-.27s-.47,.09-.65,.27l-10.76,10.76c-.36,.36-.36,.94,0,1.3l9.67,9.67c3.33,3.33,7.7,5,12.06,5s8.73-1.66,12.06-5l7.67-7.67c6.66-6.66,6.66-17.46,0-24.12h-.01s-14.19-14.17-14.19-14.17c-3.33-3.33-7.69-4.99-12.06-4.99h0Z"/>
      <path class="cls-2" d="M105.92,24.2l2.88,2.88,12.06-12.06-8.83-8.83c-6.66-6.66-17.46-6.66-24.12,0l.02,.02-7.68,7.68-8.82-8.89c-6.66-6.66-17.46-6.66-24.12,0L.27,52.03c-.36,.36-.36,.94,0,1.3,3.15,3.15,7.28,4.73,11.42,4.73s8.26-1.58,11.41-4.73l30.3-30.3c3.27-3.27,8.58-3.27,11.85,0l2.21,2.21c.4,.4,.4,1.04,0,1.44l-25.31,25.31c-.36,.36-.36,.94,0,1.3,3.15,3.15,7.28,4.73,11.41,4.73s8.26-1.58,11.42-4.73l29.09-29.09c3.27-3.27,8.58-3.27,11.85,0h0Z"/>
    </g>
  </g>
</svg>